<svg viewBox="0 0 230 59" xmlns="http://www.w3.org/2000/svg" fill="none" style="width: 280px;"><path d="M62.069 44V15.6h5.96v23.12h11.6V44h-17.56zm30.434.6c-1.573 0-3.026-.267-4.36-.8a10.411 10.411 0 01-3.4-2.32 10.907 10.907 0 01-2.24-3.56c-.533-1.387-.8-2.893-.8-4.52 0-1.573.267-3.04.8-4.4.534-1.36 1.267-2.533 2.2-3.52.96-1.013 2.08-1.8 3.36-2.36 1.28-.56 2.667-.84 4.16-.84 1.547 0 2.947.267 4.2.8a9.195 9.195 0 013.28 2.28c.907.987 1.6 2.16 2.08 3.52.507 1.36.76 2.88.76 4.56v1.4h-15.16c.24 1.573.814 2.813 1.72 3.72.907.88 2.054 1.32 3.44 1.32.96 0 1.827-.227 2.6-.68.8-.453 1.454-1.107 1.96-1.96l5 1.6a8.08 8.08 0 01-2.16 3.08c-.96.853-2.08 1.52-3.36 2-1.28.453-2.64.68-4.08.68zm-.28-18c-1.226 0-2.266.4-3.12 1.2-.826.8-1.373 1.893-1.64 3.28h9.32c-.213-1.387-.733-2.48-1.56-3.28-.8-.8-1.8-1.2-3-1.2zm19.899 18c-1.093 0-2.093-.16-3-.48a7.598 7.598 0 01-2.4-1.36 6.742 6.742 0 01-1.56-2.12c-.373-.8-.56-1.68-.56-2.64 0-1.333.36-2.507 1.08-3.52.72-1.013 1.734-1.8 3.04-2.36 1.307-.587 2.827-.88 4.56-.88.88 0 1.707.08 2.48.24.8.16 1.574.387 2.32.68v-1.24c0-1.2-.346-2.173-1.04-2.92-.666-.747-1.586-1.12-2.76-1.12-.88 0-1.68.227-2.4.68a3.46 3.46 0 00-1.52 1.84l-5-1a6.953 6.953 0 011.72-3.2c.88-.933 1.947-1.653 3.2-2.16 1.254-.507 2.614-.76 4.08-.76 1.36 0 2.6.213 3.72.64a8.086 8.086 0 012.88 1.84 7.884 7.884 0 011.88 2.84c.454 1.067.68 2.267.68 3.6V44h-5l-.16-2.48c-.56.907-1.373 1.653-2.44 2.24-1.066.56-2.333.84-3.8.84zm-2-6.88c0 .747.307 1.36.92 1.84.614.48 1.427.72 2.44.72.88 0 1.667-.187 2.36-.56a4.288 4.288 0 001.64-1.52c.4-.667.6-1.4.6-2.2v-.2a10.25 10.25 0 00-1.88-.56 8.537 8.537 0 00-2-.24c-1.253 0-2.253.253-3 .76-.72.48-1.08 1.133-1.08 1.96zM127.569 44V22.88h5.16l.2 3.2c.533-1.12 1.253-1.973 2.16-2.56.906-.613 1.973-.92 3.2-.92.373 0 .746.04 1.12.12.373.053.706.133 1 .24l-.6 5.52a3.546 3.546 0 00-.92-.2c-.294-.053-.6-.08-.92-.08-1.547 0-2.734.48-3.56 1.44-.827.933-1.24 2.267-1.24 4V44h-5.6zm15.482 0V22.88h5.16l.16 2.72a6.606 6.606 0 012.52-2.4c1.093-.613 2.333-.92 3.72-.92 1.546 0 2.893.373 4.04 1.12 1.173.72 2.08 1.76 2.72 3.12.64 1.36.96 2.96.96 4.8V44h-5.6V32.04c0-1.467-.334-2.613-1-3.44-.667-.853-1.587-1.28-2.76-1.28-.854 0-1.6.2-2.24.6a3.998 3.998 0 00-1.52 1.6c-.374.693-.56 1.48-.56 2.36V44h-5.6z" fill="#1E59F1"></path><path d="M167.104 44V14.4h2.4v12.28c.614-1.147 1.507-2.053 2.68-2.72 1.174-.693 2.507-1.04 4-1.04 1.6 0 2.974.373 4.12 1.12 1.174.747 2.08 1.813 2.72 3.2.64 1.36.96 2.987.96 4.88V44h-2.4V32.2c0-2.24-.493-3.973-1.48-5.2-.96-1.227-2.333-1.84-4.12-1.84-1.253 0-2.373.293-3.36.88a6.145 6.145 0 00-2.28 2.32c-.56.987-.84 2.12-.84 3.4V44h-2.4zm28.849.6c-1.706 0-3.173-.373-4.4-1.12-1.226-.773-2.173-1.853-2.84-3.24-.666-1.413-1-3.093-1-5.04V23.52h2.4v11.64c0 1.52.24 2.813.72 3.88.48 1.067 1.16 1.893 2.04 2.48.88.56 1.947.84 3.2.84 1.254 0 2.32-.28 3.2-.84.88-.587 1.56-1.413 2.04-2.48.48-1.093.72-2.387.72-3.88V23.52h2.4V35.2c0 1.92-.346 3.587-1.04 5-.693 1.387-1.68 2.467-2.96 3.24-1.28.773-2.773 1.16-4.48 1.16zm12.338-.6V14.4h2.4v13a8.396 8.396 0 013.12-3.28c1.333-.8 2.84-1.2 4.52-1.2 1.387 0 2.667.28 3.84.84a9.075 9.075 0 013.12 2.28c.88.987 1.56 2.133 2.04 3.44.507 1.307.76 2.733.76 4.28 0 1.547-.253 2.973-.76 4.28a10.244 10.244 0 01-2.08 3.44 9.548 9.548 0 01-3.12 2.32c-1.2.533-2.493.8-3.88.8a8.745 8.745 0 01-3.12-.56 7.773 7.773 0 01-2.64-1.56 8.425 8.425 0 01-1.88-2.44l-.16 3.96h-2.16zm9.84-1.6c1.093 0 2.093-.213 3-.64a6.949 6.949 0 002.4-1.8 8.522 8.522 0 001.56-2.72c.373-1.067.56-2.227.56-3.48 0-1.253-.187-2.4-.56-3.44-.373-1.067-.893-1.987-1.56-2.76a6.949 6.949 0 00-2.4-1.8c-.907-.427-1.907-.64-3-.64a7.224 7.224 0 00-3.04.64 7.052 7.052 0 00-2.36 1.8c-.667.773-1.187 1.693-1.56 2.76-.373 1.04-.56 2.187-.56 3.44 0 1.253.187 2.413.56 3.48a8.522 8.522 0 001.56 2.72 7.052 7.052 0 002.36 1.8c.933.427 1.947.64 3.04.64z" fill="#36CAD3"></path><path fill-rule="evenodd" clip-rule="evenodd" d="M23.702 7.394a10.166 10.166 0 017.188-2.978h14.248v34.621h-16.29a4.124 4.124 0 00-4.123 4.124h-4V14.582c0-2.696 1.07-5.282 2.977-7.188zm1.023 28.768a8.124 8.124 0 014.124-1.125h12.29V8.417H30.89a6.166 6.166 0 00-6.165 6.165v21.58z" fill="#36CAD3"></path><path fill-rule="evenodd" clip-rule="evenodd" d="M.31 12.582H14.56c2.684 0 5.265 1.046 7.174 2.919a9.934 9.934 0 012.991 7.092v31.796h-4V50.63c0-1.05-.425-2.066-1.194-2.82a4.185 4.185 0 00-2.93-1.188H.31V12.582zm20.414 31.15v-21.14c0-1.58-.64-3.106-1.792-4.236a6.246 6.246 0 00-4.373-1.774H4.31v26.04H16.6c1.46 0 2.882.388 4.123 1.11z" fill="#06F"></path></svg>